<?xml version="1.0" encoding="UTF-8" standalone="no"?>
<!-- Created with Inkscape (http://www.inkscape.org/) -->

<svg
   version="1.1"
   id="svg2"
   width="546.1333"
   height="546.1333"
   viewBox="0 0 546.1333 546.1333"
   sodipodi:docname="Icon3-512x512.svg"
   inkscape:version="1.2.1 (9c6d41e410, 2022-07-14)"
   xmlns:inkscape="http://www.inkscape.org/namespaces/inkscape"
   xmlns:sodipodi="http://sodipodi.sourceforge.net/DTD/sodipodi-0.dtd"
   xmlns="http://www.w3.org/2000/svg"
   xmlns:svg="http://www.w3.org/2000/svg">
  <defs
     id="defs6" />
  <sodipodi:namedview
     id="namedview4"
     pagecolor="#ffffff"
     bordercolor="#666666"
     borderopacity="1.0"
     inkscape:showpageshadow="2"
     inkscape:pageopacity="0.0"
     inkscape:pagecheckerboard="0"
     inkscape:deskcolor="#d1d1d1"
     showgrid="false"
     inkscape:zoom="1.4208985"
     inkscape:cx="273.06665"
     inkscape:cy="273.06665"
     inkscape:window-width="1920"
     inkscape:window-height="1011"
     inkscape:window-x="0"
     inkscape:window-y="0"
     inkscape:window-maximized="1"
     inkscape:current-layer="g8" />
  <g
     inkscape:groupmode="layer"
     inkscape:label="Image"
     id="g8">
    <path
       style="fill:#008080;stroke-width:1.06667"
       d="m 406.46875,516.88284 c -0.70303,-0.84711 -1.11402,-3.77721 -0.9306,-6.63463 l 0.32849,-5.11749 13.56335,-9.09871 c 17.98104,-12.06223 30.53309,-22.4942 44.95908,-37.36537 18.29394,-18.85847 32.2868,-37.92867 44.8001,-61.05589 2.77427,-5.1274 5.95005,-9.8074 7.05733,-10.4 2.92792,-1.56698 9.94888,-1.31885 12.3496,0.43645 2.00905,1.46893 2.07053,3.38034 2.07053,64.36915 0,51.70695 -0.25964,63.16817 -1.46393,64.61945 -1.33009,1.60286 -6.95061,1.76417 -61.4694,1.76417 -50.58008,0 -60.20321,-0.23831 -61.26455,-1.51713 z m -159.0021,-1.82115 c -38.76148,-3.93945 -79.59677,-18.96898 -111.99999,-41.22189 -13.68654,-9.39923 -20.83939,-15.38812 -34.4559,-28.84897 -38.743938,-38.30106 -62.243411,-86.2097 -70.203263,-143.12418 -1.902837,-13.60566 -1.571811,-48.31007 0.5952,-62.4 6.704263,-43.59118 21.50527,-79.3822 46.870616,-113.34007 10.609505,-14.20347 33.034887,-36.769568 46.622437,-46.914968 40.32939,-30.112715 84.6396,-46.505706 133.05428,-49.224721 71.0901,-3.992488 136.41446,20.811106 186.36653,70.763179 39.10576,39.10575 62.31965,86.38049 69.94896,142.44992 1.98947,14.62109 1.69451,47.89665 -0.55785,62.93332 -9.24029,61.68785 -39.03001,115.00404 -86.1865,154.25241 -49.57063,41.25765 -115.39848,61.24717 -180.05452,54.67597 z m 80.53333,-127.96511 c 10.21528,-1.28673 25.13428,-5.1721 34.66666,-9.02827 49.48447,-20.01813 83.8877,-61.92011 94.56233,-115.17369 2.85266,-14.2313 2.58812,-43.12147 -0.5289,-57.76227 -10.26316,-48.20657 -42.44785,-89.14412 -85.71091,-109.020584 -20.63493,-9.480362 -35.68972,-12.928954 -59.52251,-13.634777 -20.54114,-0.608338 -31.58641,0.636045 -48.01268,5.409212 -25.9127,7.529741 -46.94136,20.127929 -66.49856,39.839039 -20.89406,21.05848 -34.86387,47.15555 -41.43619,77.40711 -3.34922,15.41604 -3.3378,45.47626 0.0232,60.77763 10.505,47.8268 40.38778,86.38884 82.85766,106.92312 29.30335,14.16822 56.2725,18.46147 89.59999,14.26348 z m -34.66666,-28.37069 c -44.49254,-4.75931 -83.93775,-33.9434 -101.42679,-75.04204 -11.25454,-26.44778 -12.62113,-60.18171 -3.53709,-87.31178 11.28733,-33.71029 37.026,-61.56296 69.57478,-75.28915 47.68224,-20.10817 102.10334,-8.67822 137.89088,28.96091 4.45598,4.68653 10.15293,11.5414 12.65988,15.23306 6.72746,9.90661 14.46269,26.87284 17.7762,38.98976 2.674,9.7783 2.92159,12.31016 2.97295,30.4 0.0479,16.8628 -0.28107,21.06276 -2.26127,28.87241 -6.13912,24.21196 -17.1269,43.4586 -34.66512,60.72081 -25.46975,25.06892 -63.39194,38.27329 -98.98442,34.46602 z m 45.29604,-136.36101 c 24.81488,-6.46345 41.26913,-31.40624 37.02915,-56.13198 -5.82461,-33.9665 -41.54597,-52.28278 -72.06013,-36.94916 -16.95397,8.51952 -27.33173,25.44748 -27.33173,44.58292 0,32.81472 30.75376,56.73131 62.36271,48.49822 z m -23.16488,-20.15343 c -13.2986,-4.7458 -21.92505,-20.18277 -18.97233,-33.95084 3.21568,-14.99419 14.815,-24.27491 30.30861,-24.2502 17.2165,0.0274 30.61553,14.90605 29.20856,32.43387 -0.88318,11.00254 -7.60848,20.43585 -17.87601,25.07392 -5.6547,2.55435 -16.52236,2.8867 -22.66883,0.69325 z"
       id="path1573" />
  </g>
</svg>
